<svg width="48" height="30" viewBox="0 0 48 30" fill="none" xmlns="http://www.w3.org/2000/svg">
<path d="M37.105 9.22919H11.1322C5.63294 9.22919 1.21124 13.688 1.21124 19.1501C1.21124 24.6122 5.6701 29.0711 11.1322 29.0711C13.6217 29.0711 15.9255 28.1422 17.6347 26.6187H30.5654C32.3117 28.1422 34.5783 29.0711 37.0679 29.0711C42.5671 29.0711 46.9888 24.6122 46.9888 19.1501C46.9888 13.688 42.6043 9.22919 37.105 9.22919Z" fill="#38556A"/>
<path fill-rule="evenodd" clip-rule="evenodd" d="M0.282288 19.1501C0.282288 13.1773 5.11762 8.30026 11.1322 8.30026H37.105C43.1241 8.30026 47.9177 13.1818 47.9177 19.1501C47.9177 25.123 43.0824 30 37.0678 30C34.469 30 32.0933 29.0745 30.2257 27.5476H17.9791C16.1342 29.0797 13.7229 30 11.1322 30C5.15704 30 0.282288 25.1253 0.282288 19.1501ZM11.1322 10.1581C6.14821 10.1581 2.14014 14.1988 2.14014 19.1501C2.14014 24.0992 6.1831 28.1422 11.1322 28.1422C13.3903 28.1422 15.4749 27.2994 17.0166 25.9253L17.2808 25.6898H30.9136L31.176 25.9187C32.7626 27.3028 34.8151 28.1422 37.0678 28.1422C42.0518 28.1422 46.0598 24.1015 46.0598 19.1501C46.0598 14.1942 42.0844 10.1581 37.105 10.1581H11.1322Z" fill="#273952"/>
<path d="M37.105 9.22919H11.1322C5.63294 9.22919 1.21124 13.688 1.21124 19.1501C1.21124 24.6122 5.6701 29.0711 11.1322 29.0711C13.6217 29.0711 15.9255 28.1422 17.6347 26.6187H30.5654C32.3117 28.1422 34.5783 29.0711 37.0679 29.0711C42.5671 29.0711 46.9888 24.6122 46.9888 19.1501C46.9888 13.688 42.6043 9.22919 37.105 9.22919Z" fill="white"/>
<path d="M37.105 27.1389C41.5171 27.1389 45.0938 23.5622 45.0938 19.1501C45.0938 14.738 41.5171 11.1613 37.105 11.1613C32.6929 11.1613 29.1162 14.738 29.1162 19.1501C29.1162 23.5622 32.6929 27.1389 37.105 27.1389Z" fill="#4C6983"/>
<path d="M35.0614 13.4651L31.0484 17.4781C30.1566 18.3699 30.1566 19.7818 31.0484 20.6364C31.9402 21.5282 33.3521 21.5282 34.2068 20.6364L38.2197 16.6235C39.1115 15.7317 39.1115 14.3197 38.2197 13.4651C37.3651 12.6105 35.9531 12.6105 35.0614 13.4651Z" fill="white"/>
<path d="M20.2728 20.1534L19.2696 21.1566C19.0466 21.3796 19.0466 21.714 19.2696 21.9369C19.4925 22.1599 19.8269 22.1599 20.0499 21.9369L21.0531 20.9337C21.276 20.7107 21.276 20.3763 21.0531 20.1534C20.8302 19.9304 20.4586 19.9304 20.2728 20.1534Z" fill="#273952"/>
<path d="M26.0322 20.1534C25.8092 19.9304 25.4748 19.9304 25.2519 20.1534L24.2486 21.1566C24.0257 21.3796 24.0257 21.714 24.2486 21.9369C24.4716 22.1599 24.806 22.1599 25.0289 21.9369L26.0322 20.9337C26.2551 20.7107 26.2551 20.3392 26.0322 20.1534Z" fill="#273952"/>
<path d="M36.399 16.7721C37.2404 16.7721 37.9224 16.09 37.9224 15.2486C37.9224 14.4073 37.2404 13.7252 36.399 13.7252C35.5576 13.7252 34.8755 14.4073 34.8755 15.2486C34.8755 16.09 35.5576 16.7721 36.399 16.7721Z" fill="#FF0000"/>
<path d="M32.7576 20.4878C33.5989 20.4878 34.281 19.8057 34.281 18.9644C34.281 18.123 33.5989 17.4409 32.7576 17.4409C31.9162 17.4409 31.2341 18.123 31.2341 18.9644C31.2341 19.8057 31.9162 20.4878 32.7576 20.4878Z" fill="#38556A"/>
<path d="M39.5573 17.4409L35.5444 21.4539C34.6526 22.3457 34.6526 23.7576 35.5444 24.6122C36.4361 25.504 37.8481 25.504 38.7027 24.6122L42.7157 20.6364C43.6075 19.7447 43.6075 18.3327 42.7157 17.4781C41.8239 16.5863 40.412 16.5863 39.5573 17.4409Z" fill="white"/>
<path d="M42.4185 19.2244C42.4185 20.079 41.7496 20.7479 40.895 20.7479C40.0404 20.7479 39.3716 20.079 39.3716 19.2244C39.3716 18.3698 40.0404 17.701 40.895 17.701C41.7496 17.701 42.4185 18.407 42.4185 19.2244Z" fill="#38556A"/>
<path d="M38.7399 22.903C38.7399 23.7576 38.071 24.4265 37.2164 24.4265C36.3618 24.4265 35.693 23.7576 35.693 22.903C35.693 22.0484 36.3618 21.3796 37.2164 21.3796C38.071 21.3796 38.7399 22.0856 38.7399 22.903Z" fill="#FF0000"/>
<path fill-rule="evenodd" clip-rule="evenodd" d="M6.56386 15.5491C4.37276 17.7402 4.37276 21.2927 6.56386 23.4838C8.75497 25.6749 12.3074 25.6749 14.4985 23.4838C16.6897 21.2927 16.6897 17.7402 14.4985 15.5491C12.3074 13.358 8.75497 13.358 6.56386 15.5491ZM6.30113 23.7465C3.96492 21.4103 3.96492 17.6225 6.30113 15.2863C8.63733 12.9501 12.4251 12.9501 14.7613 15.2863C17.0975 17.6225 17.0975 21.4103 14.7613 23.7465C12.4251 26.0827 8.63733 26.0827 6.30113 23.7465Z" fill="#4C6983"/>
<path d="M14.5878 18.1469H6.52466V21.0451H14.5878V18.1469Z" fill="#273952"/>
<path d="M12.0099 23.5985L12.0099 15.5354H9.11169L9.11169 23.5985H12.0099Z" fill="#273952"/>
<path d="M28.7446 12.1646H17.486V13.5023H28.7446V12.1646Z" fill="#4C6983"/>
<path d="M20.9788 22.903H18.4521V23.609H20.9788V22.903Z" fill="#4C6983"/>
<path d="M26.4038 22.903H23.8771V23.609H26.4038V22.903Z" fill="#4C6983"/>
<path d="M24.2857 0.200012H22.8738V8.85762H24.2857V0.200012Z" fill="#273952"/>
</svg>
